# xmcd
#
# Track frame offsets:
#	150
#	15516
#	27819
#	47329
#	64711
#	78767
#	88622
#	101993
#	117649
#	136159
#
# Disc length: 1972 seconds
#
# Revision: 0
# Processed by: cddbd v1.4b41PL3 Copyright (c) Steve Scherf et al.
# Submitted via: audiograbber 1.80
#
DISCID=7407b20a
DTITLE=Russ Ponessa - Russ Ponessa
DYEAR=1900
DGENRE=
TTITLE0=Where do old rodeo cowboys go
TTITLE1=The Honky-Tonk devil in me
TTITLE2=Bring Back the Dead
TTITLE3=Blue Bedroom Eyes
TTITLE4=Monique
TTITLE5=My Way Or The Highway
TTITLE6=Cold Hard Cash
TTITLE7=Things We Do When We're Young
TTITLE8=The Bakersfield Kid
TTITLE9=Learning To Live With Losing You
EXTD=
EXTT0=
EXTT1=
EXTT2=
EXTT3=
EXTT4=
EXTT5=
EXTT6=
EXTT7=
EXTT8=
EXTT9=
PLAYORDER=
